<svg width="48" height="48" viewBox="0 0 48 48" fill="none" xmlns="http://www.w3.org/2000/svg">
<g clip-path="url(#clip0_1_4)">
<path d="M26.4229 3.16287e-07L11.9813 0.0616803C5.86979 0.902448 0.633567 4.69042 0.171087 11.1528C0.0248793 11.746 0.0969753 12.3483 0.0762873 12.8994C0.00966328 15.7234 0.0256473 18.7616 0.0687993 21.6691C0.0803193 26.2571 -0.0551847 29.954 0.0312153 33.3649C0.0865593 43.3881 6.00381 48.0723 16.749 47.8772C19.4111 47.8289 22.4551 47.8116 25.9459 47.9028C29.4178 47.9262 32.0943 48.1549 34.4794 47.8155C45.072 46.3082 47.1368 39.2039 47.5669 33.4522V26.8656C47.2578 20.1747 42.4065 18.3326 38.2587 18.1967C38.7045 16.5241 38.8117 14.2502 38.4211 11.1873C37.9185 5.23579 33.6945 0.582288 26.4229 -4.76837e-05V3.16287e-07ZM14.3464 8.98781H26.0949C32.5905 9.85296 32.2846 16.8566 26.0949 17.8613H14.3464C7.8507 16.9961 8.15661 9.99245 14.3464 8.98781ZM11.6789 28.3701L33.2622 28.4438C39.7891 29.2856 39.8075 37.2312 33.4894 38.2034L11.9061 38.1282C5.21277 37.3053 5.3067 29.3507 11.6789 28.3701V28.3701Z" fill="white"/>
</g>
<defs>
<clipPath id="clip0_1_4">
<rect width="47.57" height="48" fill="white"/>
</clipPath>
</defs>
</svg>
