<svg width="36" height="36" viewBox="0 0 36 36" fill="none" xmlns="http://www.w3.org/2000/svg">
<path d="M18 0C14.4399 0 10.9598 1.05568 7.99974 3.03355C5.03965 5.01141 2.73255 7.82263 1.37017 11.1117C0.0077914 14.4008 -0.348669 18.02 0.345865 21.5116C1.0404 25.0033 2.75473 28.2106 5.27208 30.7279C7.78942 33.2453 10.9967 34.9596 14.4884 35.6541C17.98 36.3487 21.5992 35.9922 24.8883 34.6298C28.1774 33.2675 30.9886 30.9603 32.9665 28.0003C34.9443 25.0402 36 21.5601 36 18C36 17.08 35.92 16.16 35.8 15.28C34.8007 16.6813 33.4802 17.8229 31.9492 18.6093C30.4182 19.3957 28.7212 19.804 27 19.8C24.7104 19.8001 22.48 19.0729 20.6304 17.7233C18.7808 16.3738 17.4077 14.4716 16.7091 12.2912C16.0105 10.1108 16.0224 7.76486 16.7433 5.59171C17.4642 3.41857 18.8567 1.53056 20.72 0.2C19.84 0.0799998 18.92 0 18 0V0Z" fill="white"/>
</svg>
