<svg width="49" height="48" viewBox="0 0 49 48" fill="none" xmlns="http://www.w3.org/2000/svg">
<path d="M24.57 32C26.6917 32 28.7266 31.1571 30.2269 29.6569C31.7271 28.1566 32.57 26.1217 32.57 24C32.57 21.8783 31.7271 19.8434 30.2269 18.3431C28.7266 16.8429 26.6917 16 24.57 16V32Z" fill="white"/>
<path fill-rule="evenodd" clip-rule="evenodd" d="M24.57 4C13.524 4 4.57 12.954 4.57 24C4.57 35.046 13.524 44 24.57 44C35.616 44 44.57 35.046 44.57 24C44.57 12.954 35.616 4 24.57 4ZM24.57 8V16C22.4483 16 20.4134 16.8429 18.9131 18.3431C17.4129 19.8434 16.57 21.8783 16.57 24C16.57 26.1217 17.4129 28.1566 18.9131 29.6569C20.4134 31.1571 22.4483 32 24.57 32V40C28.8135 40 32.8831 38.3143 35.8837 35.3137C38.8843 32.3131 40.57 28.2435 40.57 24C40.57 19.7565 38.8843 15.6869 35.8837 12.6863C32.8831 9.68571 28.8135 8 24.57 8V8Z" fill="white"/>
</svg>
