<svg width="48" height="48" viewBox="0 0 48 48" fill="none" xmlns="http://www.w3.org/2000/svg">
<path d="M24 30C25.6667 30 27.0833 29.4167 28.25 28.25C29.4167 27.0833 30 25.6667 30 24C30 22.3333 29.4167 20.9167 28.25 19.75C27.0833 18.5833 25.6667 18 24 18C22.3333 18 20.9167 18.5833 19.75 19.75C18.5833 20.9167 18 22.3333 18 24C18 25.6667 18.5833 27.0833 19.75 28.25C20.9167 29.4167 22.3333 30 24 30ZM24 34C21.2333 34 18.8753 33.0247 16.926 31.074C14.9753 29.1247 14 26.7667 14 24C14 21.2333 14.9753 18.8747 16.926 16.924C18.8753 14.9747 21.2333 14 24 14C26.7667 14 29.1253 14.9747 31.076 16.924C33.0253 18.8747 34 21.2333 34 24C34 26.7667 33.0253 29.1247 31.076 31.074C29.1253 33.0247 26.7667 34 24 34ZM4 26C3.43333 26 2.95867 25.808 2.576 25.424C2.192 25.0413 2 24.5667 2 24C2 23.4333 2.192 22.958 2.576 22.574C2.95867 22.1913 3.43333 22 4 22H8C8.56667 22 9.042 22.1913 9.426 22.574C9.80867 22.958 10 23.4333 10 24C10 24.5667 9.80867 25.0413 9.426 25.424C9.042 25.808 8.56667 26 8 26H4ZM40 26C39.4333 26 38.9587 25.808 38.576 25.424C38.192 25.0413 38 24.5667 38 24C38 23.4333 38.192 22.958 38.576 22.574C38.9587 22.1913 39.4333 22 40 22H44C44.5667 22 45.0413 22.1913 45.424 22.574C45.808 22.958 46 23.4333 46 24C46 24.5667 45.808 25.0413 45.424 25.424C45.0413 25.808 44.5667 26 44 26H40ZM24 10C23.4333 10 22.9587 9.808 22.576 9.424C22.192 9.04133 22 8.56667 22 8V4C22 3.43333 22.192 2.958 22.576 2.574C22.9587 2.19133 23.4333 2 24 2C24.5667 2 25.042 2.19133 25.426 2.574C25.8087 2.958 26 3.43333 26 4V8C26 8.56667 25.8087 9.04133 25.426 9.424C25.042 9.808 24.5667 10 24 10ZM24 46C23.4333 46 22.9587 45.808 22.576 45.424C22.192 45.0413 22 44.5667 22 44V40C22 39.4333 22.192 38.9587 22.576 38.576C22.9587 38.192 23.4333 38 24 38C24.5667 38 25.042 38.192 25.426 38.576C25.8087 38.9587 26 39.4333 26 40V44C26 44.5667 25.8087 45.0413 25.426 45.424C25.042 45.808 24.5667 46 24 46ZM11.3 14.1L9.15 12C8.75 11.6333 8.558 11.1667 8.574 10.6C8.59133 10.0333 8.78333 9.55 9.15 9.15C9.55 8.75 10.0333 8.55 10.6 8.55C11.1667 8.55 11.6333 8.75 12 9.15L14.1 11.3C14.4667 11.7 14.65 12.1667 14.65 12.7C14.65 13.2333 14.4667 13.7 14.1 14.1C13.7333 14.5 13.2753 14.6913 12.726 14.674C12.1753 14.658 11.7 14.4667 11.3 14.1V14.1ZM36 38.85L33.9 36.7C33.5333 36.3 33.35 35.8253 33.35 35.276C33.35 34.7253 33.5333 34.2667 33.9 33.9C34.2667 33.5 34.7253 33.3087 35.276 33.326C35.8253 33.342 36.3 33.5333 36.7 33.9L38.85 36C39.25 36.3667 39.442 36.8333 39.426 37.4C39.4087 37.9667 39.2167 38.45 38.85 38.85C38.45 39.25 37.9667 39.45 37.4 39.45C36.8333 39.45 36.3667 39.25 36 38.85ZM33.9 14.1C33.5 13.7333 33.3087 13.2747 33.326 12.724C33.342 12.1747 33.5333 11.7 33.9 11.3L36 9.15C36.3667 8.75 36.8333 8.558 37.4 8.574C37.9667 8.59133 38.45 8.78333 38.85 9.15C39.25 9.55 39.45 10.0333 39.45 10.6C39.45 11.1667 39.25 11.6333 38.85 12L36.7 14.1C36.3 14.4667 35.8333 14.65 35.3 14.65C34.7667 14.65 34.3 14.4667 33.9 14.1V14.1ZM9.15 38.85C8.75 38.45 8.55 37.9667 8.55 37.4C8.55 36.8333 8.75 36.3667 9.15 36L11.3 33.9C11.7 33.5333 12.1753 33.35 12.726 33.35C13.2753 33.35 13.7333 33.5333 14.1 33.9C14.5 34.2667 14.692 34.7253 14.676 35.276C14.6587 35.8253 14.4667 36.3 14.1 36.7L12 38.85C11.6333 39.25 11.1667 39.4413 10.6 39.424C10.0333 39.408 9.55 39.2167 9.15 38.85Z" fill="#C9C110"/>
</svg>
